<?xml version="1.0" encoding="utf-8"?>
<!-- Generator: Adobe Illustrator 16.0.0, SVG Export Plug-In . SVG Version: 6.00 Build 0)  -->
<!DOCTYPE svg PUBLIC "-//W3C//DTD SVG 1.1//EN" "http://www.w3.org/Graphics/SVG/1.1/DTD/svg11.dtd">
<svg version="1.1" id="Capa_1" xmlns="http://www.w3.org/2000/svg" xmlns:xlink="http://www.w3.org/1999/xlink" x="0px" y="0px"
	 width="258.625px" height="258.625px" viewBox="0 0 258.625 258.625" enable-background="new 0 0 258.625 258.625"
	 xml:space="preserve">
<g>
	<g>
		<path fill="#E7E8EA" d="M129.306,254.096c-68.788,0-124.75-55.963-124.75-124.75c0-68.788,55.962-124.75,124.75-124.75
			s124.75,55.962,124.75,124.75C254.057,198.133,198.094,254.096,129.306,254.096z"/>
		<g>
			<path fill="#7B9F3A" d="M129.306,9.096c66.413,0,120.25,53.838,120.25,120.25s-53.838,120.25-120.25,120.25
				c-66.412,0-120.25-53.838-120.25-120.25S62.894,9.096,129.306,9.096 M129.306,0.096c-34.524,0-66.981,13.444-91.394,37.856
				S0.056,94.822,0.056,129.346c0,34.523,13.444,66.981,37.856,91.394s56.87,37.856,91.394,37.856s66.982-13.444,91.394-37.856
				s37.856-56.87,37.856-91.394c0-34.524-13.444-66.981-37.856-91.394S163.83,0.096,129.306,0.096L129.306,0.096z"/>
		</g>
	</g>
	<g>
		<path fill="#61605F" d="M135.807,96.346c0,2.761-2.239,5-5,5h-48c-2.761,0-5-2.239-5-5v-52c0-2.761,2.239-5,5-5h48
			c2.761,0,5,2.239,5,5V96.346z"/>
		<g>
			<path d="M106.806,87.846c-9.649,0-17.5-7.851-17.5-17.5s7.851-17.5,17.5-17.5s17.5,7.851,17.5,17.5
				S116.456,87.846,106.806,87.846z"/>
			<path fill="#98979C" d="M106.806,53.846c9.113,0,16.5,7.387,16.5,16.5s-7.387,16.5-16.5,16.5s-16.5-7.387-16.5-16.5
				S97.693,53.846,106.806,53.846 M106.806,51.846c-10.201,0-18.5,8.299-18.5,18.5s8.299,18.5,18.5,18.5s18.5-8.299,18.5-18.5
				S117.007,51.846,106.806,51.846L106.806,51.846z"/>
		</g>
	</g>
	<g>
		<defs>
			<circle id="SVGID_1_" cx="129.389" cy="129.596" r="120.25"/>
		</defs>
		<clipPath id="SVGID_2_">
			<use xlink:href="#SVGID_1_"  overflow="visible"/>
		</clipPath>
		<g clip-path="url(#SVGID_2_)">
			<path fill="#E1AA6A" d="M104.038,249.549h59.306c0,0,0-28.766,0-34.077c0-5.311,9.295-12.835,13.721-27.439s0-39.833,0-48.685
				c0-8.85-8.853-7.965-15.048-4.867c0,0-3.983-10.18-11.95-11.065c-7.967-0.885-10.622,2.657-10.622,2.657
				s-3.54-7.525-11.063-7.525c-7.524,0-11.951,3.098-11.951,3.098s0-39.684,0-50.306s-19.473-12.096-19.473,3.394
				c0,15.49,0,69.041,0,69.041s-15.933,2.081-17.704,13.877c-1.771,11.793,10.621,48.084,22.572,55.166
				C101.826,212.816,104.038,227.863,104.038,249.549z"/>
			<path fill="#DA9554" d="M96.958,143.773c0,0,1.676,30.373,1.676,33.173c0,2.801-7.201-7.601-8.402-12.802
				c-1.201-5.199,3.601-5.6,4.001-8.8C94.632,152.145,96.958,143.773,96.958,143.773z"/>
			<g>
				<path fill="#DA9554" d="M150.066,123.416c-0.635-0.072-1.225-0.105-1.794-0.123c4.419,3.523,11.274,12.109,11.565,28.05
					c0,0,2.355-7.326,2.179-16.863C162.017,134.48,158.033,124.302,150.066,123.416z"/>
				<path fill="#DA9554" d="M128.381,118.547c-0.138,0-0.266,0.009-0.401,0.011c2.647,1.721,5.801,5.18,6.255,11.985
					c0.801,12,2.8,14.401,2.8,14.401s3.219-8.543,2.409-18.872C139.444,126.072,135.904,118.547,128.381,118.547z"/>
				<path fill="#DA9554" d="M163.344,248.752c0-4.652,0-28.492,0-33.28c0-5.311,9.295-12.835,13.721-27.439
					c4.426-14.606,0-39.833,0-48.685c0-5.33-3.212-7.125-7.118-7.038c2.358,2.86,4.492,6.433,5.293,21.235
					c1.169,21.629-5.802,42.203-13.802,50.203c-8.001,8.001-12,6.801-13.2,14.803c-1.201,8-9.602,17.6-22.002,18.4
					c-9.051,0.584,9.383,8.412,20.005,12.598h14.688L163.344,248.752z"/>
				<path fill="#DA9554" d="M112.633,77.339c0.401,15.2,0.8,59.604,0.8,59.604s1.994-6.594,2.997-15.298c0,0,0-39.684,0-50.306
					c0-5.044-4.391-8.021-9.002-8.102C109.813,65.213,112.419,69.223,112.633,77.339z"/>
			</g>
			<path fill="#DA9554" d="M105.633,211.35c-5.587-4.471-13.017-11.9-16.309-15.258c3.76,7.712,8.159,14.15,12.501,16.725
				c0,0,1.553,10.572,2.058,26.76l4.35-0.824C108.233,238.752,106.634,212.148,105.633,211.35z"/>
			<g>
				<path fill="#8D4D20" d="M164.378,260.99h-59.957c-3.401,0-6.158-2.758-6.158-6.158v-13.093c0-3.4,2.757-6.157,6.158-6.157
					h59.957c3.401,0,6.157,2.757,6.157,6.157v13.093C170.535,258.232,167.779,260.99,164.378,260.99z"/>
			</g>
		</g>
	</g>
</g>
</svg>
