<?xml version="1.0" encoding="utf-8"?>
<!-- Generator: Adobe Illustrator 16.0.0, SVG Export Plug-In . SVG Version: 6.00 Build 0)  -->
<!DOCTYPE svg PUBLIC "-//W3C//DTD SVG 1.1//EN" "http://www.w3.org/Graphics/SVG/1.1/DTD/svg11.dtd">
<svg version="1.1" id="Capa_1" xmlns="http://www.w3.org/2000/svg" xmlns:xlink="http://www.w3.org/1999/xlink" x="0px" y="0px"
	 width="283.464px" height="283.464px" viewBox="0 0 283.464 283.464" enable-background="new 0 0 283.464 283.464"
	 xml:space="preserve">
<g>
	<g>
		<path fill="#001B34" d="M83.877,59.081H36.612c-2.913,0-5.273,2.361-5.273,5.274v161.034c0,2.913,2.36,5.275,5.273,5.275h47.265
			c2.914,0,5.277-2.362,5.277-5.275V64.355C89.154,61.442,86.791,59.081,83.877,59.081z M60.246,217.607
			c-7.21,0-13.054-5.844-13.054-13.055c0-7.21,5.844-13.054,13.054-13.054c7.211,0,13.055,5.844,13.055,13.054
			C73.301,211.763,67.457,217.607,60.246,217.607z M78.895,152.95c0,0.76-0.614,1.374-1.374,1.374H42.969
			c-0.76,0-1.374-0.614-1.374-1.374V74.908c0-0.759,0.614-1.373,1.374-1.373h5.871l10.087,10.088c0.729,0.728,1.91,0.728,2.637,0
			l10.09-10.088h5.867c0.76,0,1.374,0.614,1.374,1.373V152.95z"/>
	</g>
	<g>
		<path fill="#001B34" d="M73.301,97.285H47.192c-1.432,0-2.593-1.159-2.593-2.592c0-1.434,1.161-2.593,2.593-2.593h26.108
			c1.432,0,2.593,1.159,2.593,2.593C75.894,96.126,74.732,97.285,73.301,97.285z"/>
	</g>
	<g>
		<path fill="#001B34" d="M73.301,108.809H47.192c-1.432,0-2.593-1.161-2.593-2.593c0-1.434,1.161-2.593,2.593-2.593h26.108
			c1.432,0,2.593,1.159,2.593,2.593C75.894,107.648,74.732,108.809,73.301,108.809z"/>
	</g>
	<g>
		<path fill="#001B34" d="M73.301,120.331H47.192c-1.432,0-2.593-1.161-2.593-2.593s1.161-2.593,2.593-2.593h26.108
			c1.432,0,2.593,1.161,2.593,2.593S74.732,120.331,73.301,120.331z"/>
	</g>
	<g>
		<path fill="#001B34" d="M73.301,131.854H47.192c-1.432,0-2.593-1.159-2.593-2.593c0-1.433,1.161-2.593,2.593-2.593h26.108
			c1.432,0,2.593,1.16,2.593,2.593C75.894,130.695,74.732,131.854,73.301,131.854z"/>
	</g>
	<g>
		<path fill="#001B34" d="M73.301,143.376H47.192c-1.432,0-2.593-1.16-2.593-2.592c0-1.433,1.161-2.593,2.593-2.593h26.108
			c1.432,0,2.593,1.16,2.593,2.593C75.894,142.216,74.732,143.376,73.301,143.376z"/>
	</g>
	<g>
		<path fill="#001B34" d="M151.286,59.081h-47.266c-2.913,0-5.272,2.361-5.272,5.274v161.034c0,2.913,2.359,5.275,5.272,5.275
			h47.266c2.913,0,5.276-2.362,5.276-5.275V64.355C156.563,61.442,154.199,59.081,151.286,59.081z M127.654,217.607
			c-7.21,0-13.054-5.844-13.054-13.055c0-7.21,5.844-13.054,13.054-13.054c7.212,0,13.056,5.844,13.056,13.054
			C140.71,211.763,134.866,217.607,127.654,217.607z M146.304,152.95c0,0.76-0.614,1.374-1.374,1.374h-34.552
			c-0.76,0-1.375-0.614-1.375-1.374V74.908c0-0.759,0.615-1.373,1.375-1.373h5.87l10.088,10.088c0.729,0.728,1.91,0.728,2.636,0
			l10.09-10.088h5.868c0.76,0,1.374,0.614,1.374,1.373V152.95z"/>
	</g>
	<g>
		<path fill="#001B34" d="M140.71,97.285h-26.109c-1.432,0-2.593-1.159-2.593-2.592c0-1.434,1.161-2.593,2.593-2.593h26.109
			c1.431,0,2.592,1.159,2.592,2.593C143.302,96.126,142.141,97.285,140.71,97.285z"/>
	</g>
	<g>
		<path fill="#001B34" d="M140.71,108.809h-26.109c-1.432,0-2.593-1.161-2.593-2.593c0-1.434,1.161-2.593,2.593-2.593h26.109
			c1.431,0,2.592,1.159,2.592,2.593C143.302,107.648,142.141,108.809,140.71,108.809z"/>
	</g>
	<g>
		<path fill="#001B34" d="M140.71,120.331h-26.109c-1.432,0-2.593-1.161-2.593-2.593s1.161-2.593,2.593-2.593h26.109
			c1.431,0,2.592,1.161,2.592,2.593S142.141,120.331,140.71,120.331z"/>
	</g>
	<g>
		<path fill="#001B34" d="M140.71,131.854h-26.109c-1.432,0-2.593-1.159-2.593-2.593c0-1.433,1.161-2.593,2.593-2.593h26.109
			c1.431,0,2.592,1.16,2.592,2.593C143.302,130.695,142.141,131.854,140.71,131.854z"/>
	</g>
	<g>
		<path fill="#001B34" d="M140.71,143.376h-26.109c-1.432,0-2.593-1.16-2.593-2.592c0-1.433,1.161-2.593,2.593-2.593h26.109
			c1.431,0,2.592,1.16,2.592,2.593C143.302,142.216,142.141,143.376,140.71,143.376z"/>
	</g>
	<g>
		<path fill="#001B34" d="M252.012,214.583L218.894,56.991c-0.601-2.851-3.396-4.677-6.248-4.078l-46.256,9.721
			c-2.85,0.6-4.676,3.396-4.078,6.249l33.121,157.589c0.597,2.853,3.396,4.676,6.249,4.078l46.251-9.723
			C250.785,220.23,252.611,217.432,252.012,214.583z M192.198,154.537c-0.743,0.154-1.469-0.321-1.628-1.063L174.521,77.1
			c-0.154-0.743,0.318-1.472,1.061-1.627l5.746-1.207l11.947,7.798c0.863,0.562,2.019,0.319,2.578-0.542l7.798-11.949l5.747-1.207
			c0.742-0.157,1.471,0.319,1.627,1.062l16.048,76.375c0.159,0.742-0.316,1.469-1.06,1.627L192.198,154.537z M222.122,212.915
			c-7.057,1.482-13.979-3.038-15.462-10.094s3.035-13.976,10.09-15.461c7.06-1.482,13.979,3.034,15.462,10.093
			C233.697,204.508,229.177,211.429,222.122,212.915z"/>
	</g>
	<g>
		<path fill="#001B34" d="M184.063,97.903c-1.198,0-2.276-0.839-2.532-2.062c-0.297-1.401,0.601-2.775,2.002-3.068l25.552-5.371
			c1.408-0.297,2.775,0.603,3.071,2.003c0.294,1.403-0.604,2.777-2.005,3.07L184.6,97.848
			C184.421,97.884,184.24,97.903,184.063,97.903z"/>
	</g>
	<g>
		<path fill="#001B34" d="M186.432,109.18c-1.197,0-2.274-0.839-2.531-2.059c-0.298-1.403,0.601-2.777,2.002-3.072l25.552-5.37
			c1.403-0.293,2.778,0.603,3.072,2.003c0.293,1.402-0.604,2.775-2.006,3.071l-25.552,5.369
			C186.79,109.161,186.611,109.18,186.432,109.18z"/>
	</g>
	<g>
		<path fill="#001B34" d="M188.802,120.456c-1.198,0-2.275-0.837-2.532-2.059c-0.297-1.401,0.602-2.775,2.002-3.071l25.553-5.369
			c1.403-0.297,2.777,0.601,3.071,2.001c0.294,1.403-0.604,2.777-2.006,3.072l-25.551,5.37
			C189.16,120.438,188.98,120.456,188.802,120.456z"/>
	</g>
	<g>
		<path fill="#001B34" d="M191.172,131.734c-1.198,0-2.276-0.841-2.532-2.061c-0.297-1.403,0.602-2.776,2.002-3.07l25.552-5.371
			c1.408-0.297,2.775,0.603,3.072,2.005c0.293,1.401-0.604,2.775-2.005,3.069l-25.552,5.371
			C191.53,131.714,191.351,131.734,191.172,131.734z"/>
	</g>
	<g>
		<path fill="#001B34" d="M193.541,143.009c-1.197,0-2.274-0.839-2.531-2.059c-0.298-1.403,0.601-2.776,2.002-3.072l25.552-5.369
			c1.404-0.292,2.778,0.603,3.072,2.003c0.293,1.401-0.605,2.775-2.006,3.07l-25.552,5.37
			C193.899,142.992,193.721,143.009,193.541,143.009z"/>
	</g>
</g>
</svg>
